PathFileType	4	(X/Y/Z)	 s04c0203.trc
DataRate	CameraRate	NumFrames	NumMarkers	Units	OrigDataRate	OrigDataStartFrame	OrigNumFrames
200	200	5	50	mm	200	751	2000
Frame#	Time	racr			lacr			c7			jug			rlel			rdr			llel			ldr			s2			lic			ric			lasi			rasi			rpsi			lpsi			rgt			lgt			rth1			rth2			rth3			rth4			rlfc			rmfc			rsh1			rsh2			rsh3			rsh4			rlmal			rmmal			rcal			rtoe			rmt5			lth1			lth2			lth4			lth3			llfc			lmfc			lsh1			lsh2			lsh3			lsh4			llmal			lmmal			lcal			ltoe			lmt5			SBIKE			LBIKE			RBIKE			
		X1	Y1	Z1	X2	Y2	Z2	X3	Y3	Z3	X4	Y4	Z4	X5	Y5	Z5	X6	Y6	Z6	X7	Y7	Z7	X8	Y8	Z8	X9	Y9	Z9	X10	Y10	Z10	X11	Y11	Z11	X12	Y12	Z12	X13	Y13	Z13	X14	Y14	Z14	X15	Y15	Z15	X16	Y16	Z16	X17	Y17	Z17	X18	Y18	Z18	X19	Y19	Z19	X20	Y20	Z20	X21	Y21	Z21	X22	Y22	Z22	X23	Y23	Z23	X24	Y24	Z24	X25	Y25	Z25	X26	Y26	Z26	X27	Y27	Z27	X28	Y28	Z28	X29	Y29	Z29	X30	Y30	Z30	X31	Y31	Z31	X32	Y32	Z32	X33	Y33	Z33	X34	Y34	Z34	X35	Y35	Z35	X36	Y36	Z36	X37	Y37	Z37	X38	Y38	Z38	X39	Y39	Z39	X40	Y40	Z40	X41	Y41	Z41	X42	Y42	Z42	X43	Y43	Z43	X44	Y44	Z44	X45	Y45	Z45	X46	Y46	Z46	X47	Y47	Z47	X48	Y48	Z48	X49	Y49	Z49	X50	Y50	Z50	
751	3.7550	486.967714	1381.007823	-145.288167	476.647240	1372.154482	-429.584002	462.679127	1444.607596	-285.905149	436.485161	1292.191522	-287.814796	451.998595	1096.072373	12.138474	678.110458	934.751863	-97.162264	459.605230	1115.795160	-576.197791	669.403079	947.419260	-462.689646	-74.053199	1164.061116	-274.057053	67.419304	1193.857567	-428.027843	82.129562	1180.687473	-108.448381	117.258872	1158.174214	-386.916516	131.153842	1139.638549	-155.100414	-47.033255	1206.467655	-225.655257	-54.591957	1214.813303	-298.324791	39.406489	1110.947414	-95.899957	55.226400	1118.805808	-458.962178	146.278750	988.911186	-76.346306	214.242974	932.718525	-81.020598	247.905141	854.261089	-79.901862	240.829381	953.068401	-97.327211	310.959678	723.796971	-95.843203	299.228818	705.855611	-210.704630	233.431380	622.857292	-76.396090	203.518985	538.638417	-96.237926	135.361825	486.892226	-109.829827	232.789838	524.338381	-117.359948	58.051328	354.624146	-122.980689	90.370218	352.711595	-205.089224	-9.248913	360.334907	-171.835883	234.095429	178.424079	-147.051160	160.067013	196.638175	-100.417132	127.160091	1063.865443	-465.982148	212.994626	1051.748215	-469.233780	227.261549	1083.927171	-458.664719	282.268381	995.992147	-472.583044	417.878268	907.792052	-449.777855	452.617724	890.504155	-340.659678	391.810143	795.565079	-470.386183	376.348602	711.534051	-449.107577	321.118786	642.247366	-446.452739	402.257913	704.126938	-420.685075	255.071444	513.361747	-437.573006	253.740833	522.749554	-350.816186	172.270605	490.782808	-398.153343	472.731495	476.903479	-401.153449	403.753419	437.408089	-463.432115	-176.680727	933.551796	-279.279206	-3.216731	85.448773	-484.675313	-14.978955	80.342269	-84.170873	
752	3.7600	486.888460	1380.970689	-144.933942	476.981081	1371.660746	-429.982682	463.092423	1444.406502	-285.871077	436.768452	1291.898582	-287.660987	450.394363	1096.121745	12.519595	676.176265	934.337281	-96.566482	458.221684	1115.651662	-577.450067	667.616715	946.839002	-463.169300	-73.740914	1163.201120	-274.279571	68.024730	1192.778948	-428.551487	82.472378	1180.443362	-108.552737	117.768049	1156.897135	-387.097064	131.428523	1139.356868	-155.130956	-46.740276	1205.754872	-225.955403	-54.424057	1213.807225	-298.130211	39.919250	1110.797251	-95.763363	56.490527	1114.700259	-458.673418	147.996774	990.396237	-76.812451	216.690846	935.002340	-81.296521	251.265710	856.935683	-79.902118	243.036501	955.581425	-97.462805	315.242634	727.208521	-95.193744	303.006832	709.281262	-210.120946	235.950564	627.588563	-75.856596	203.720992	544.177308	-95.862461	134.376080	494.059327	-109.466282	232.665528	529.222357	-117.070883	54.056684	363.532716	-122.862278	86.458028	361.191111	-204.965476	-13.173233	370.326916	-171.771861	227.443797	184.826022	-147.070661	153.616297	204.081664	-100.479102	128.380796	1058.775853	-465.720416	213.970380	1045.261931	-469.165027	228.834444	1077.287504	-458.877813	282.358712	988.172532	-471.183710	415.743206	897.712232	-447.644357	449.381692	879.999259	-338.397107	391.178159	783.518236	-468.581428	377.076697	699.419286	-446.975413	323.325421	629.054014	-444.897858	402.841596	692.668212	-418.054379	259.042775	500.697389	-437.248968	257.482463	509.943450	-350.315077	177.396006	475.697491	-397.580236	477.519890	471.037205	-401.063541	409.674706	429.678676	-463.345976	-176.511891	933.532563	-279.413563	-3.282716	85.387916	-484.643534	-14.972047	80.326308	-84.169726	
753	3.7650	486.844092	1380.991590	-144.614058	477.397636	1371.168019	-430.300733	463.531599	1444.207652	-285.366977	437.230505	1291.650076	-287.488830	448.804709	1096.553705	12.869363	674.043861	934.051647	-96.005209	456.884922	1115.556200	-578.651809	665.746592	946.177475	-463.567606	-73.394630	1162.472209	-274.715481	68.766019	1191.832487	-429.162709	82.854270	1180.235642	-108.737560	118.415629	1155.638648	-387.328171	131.830182	1139.035809	-155.767341	-46.518800	1205.108782	-226.391934	-54.123667	1212.839706	-298.360970	40.490740	1110.751525	-95.825268	57.833057	1110.612475	-458.407777	149.702144	991.913725	-77.202346	218.971933	937.316133	-81.560662	254.483913	859.643250	-79.753295	245.122225	958.133444	-97.562393	319.163763	730.446521	-94.526003	306.866620	712.729481	-209.285280	238.013212	632.362419	-75.339323	203.920018	549.698756	-95.475562	133.429395	501.265053	-109.131817	232.447181	534.133443	-116.754305	50.164452	373.053268	-123.152866	82.597853	369.870052	-204.907447	-17.076907	380.470059	-171.708429	221.126014	191.743766	-147.164778	147.605168	211.910195	-100.501379	129.771603	1053.931310	-465.735412	215.151206	1038.942031	-468.917576	230.456691	1070.671528	-458.500572	282.678586	980.526188	-469.604487	413.379374	887.679135	-445.926935	447.236842	870.594999	-335.910070	390.380059	772.300790	-466.882374	377.918108	688.022614	-445.081712	325.839992	616.460076	-443.167626	403.535050	681.987612	-415.667529	262.951548	488.735692	-437.107997	261.268404	497.575910	-349.691575	181.897425	461.580281	-397.290266	482.051637	464.426166	-400.933275	415.173277	421.471423	-463.208141	-176.354447	933.547940	-279.447786	-3.269850	85.369828	-484.657736	-14.953583	80.305088	-84.169111	
754	3.7700	486.900916	1381.038732	-144.235836	477.954938	1370.688319	-430.565031	464.078802	1444.033182	-284.707353	437.889725	1291.579017	-287.269268	447.227960	1097.173029	13.337072	671.677248	933.727229	-95.853703	455.623122	1115.474440	-579.741735	663.831185	945.404138	-463.841147	-72.934763	1161.803782	-275.093319	69.555005	1190.963771	-429.696801	83.316553	1180.014538	-109.010134	119.210163	1154.412508	-387.617442	132.236627	1138.793415	-156.514368	-46.799400	1204.983522	-226.797563	-53.354045	1212.430896	-299.431980	41.116849	1110.925992	-95.963259	59.187682	1106.691547	-458.025480	151.292497	993.528700	-77.450600	221.067350	939.623242	-81.716530	257.410580	862.371330	-79.500526	247.010599	960.564716	-97.655290	322.805841	733.594929	-93.819884	310.507480	715.900331	-208.527659	239.946946	637.334868	-74.755295	204.084164	555.436172	-95.095468	132.488420	508.571925	-108.858592	232.196485	539.240758	-116.430408	46.466795	382.040514	-123.063816	79.189263	378.545735	-204.977267	-20.759943	390.485680	-171.862640	215.491926	199.253960	-147.185969	142.131548	220.215906	-100.484240	131.278910	1049.588277	-466.195286	216.408682	1032.986564	-468.526627	232.231710	1064.688607	-458.929851	283.115416	973.667807	-468.616000	411.465770	878.161382	-444.412340	443.251908	860.202823	-334.986812	389.375299	762.757922	-465.609624	378.565051	678.341896	-443.704944	328.270820	605.554603	-441.829856	404.388333	672.828686	-414.293760	266.699868	477.078993	-436.725045	264.883837	485.606576	-349.194339	186.138116	448.170232	-397.075093	486.274422	457.206209	-400.708498	420.281907	413.011429	-463.017362	-176.258592	933.514695	-279.675641	-3.256502	85.340511	-484.667938	-14.938422	80.302183	-84.158316	
755	3.7750	487.033571	1381.053347	-143.862754	478.541001	1370.313105	-430.738622	464.673009	1443.779089	-283.866659	438.622627	1291.647261	-287.057054	445.435191	1097.642943	13.688935	669.537367	933.679136	-95.299181	454.400643	1115.407158	-580.692436	662.252702	944.738911	-464.281800	-72.422799	1161.458640	-275.428568	70.371557	1190.301355	-430.353863	83.751978	1180.004188	-109.367709	120.160199	1153.232470	-387.972477	133.399184	1138.497421	-157.468378	-46.909272	1205.176864	-227.561587	-52.205082	1211.846285	-301.601622	41.722381	1111.151191	-96.143663	60.481212	1103.162249	-457.611124	152.488921	995.059765	-77.459260	222.947110	942.022283	-81.762386	260.158683	865.258980	-79.046434	248.802530	963.530434	-97.643225	326.102176	736.793852	-93.115175	313.965755	719.011694	-207.815117	241.874507	642.303018	-74.207798	204.338995	561.195279	-94.686310	131.683200	515.929590	-108.647794	232.025160	544.596306	-116.078734	43.115674	391.383360	-123.285864	75.669118	387.486046	-205.291434	-24.519393	400.818259	-172.694701	210.297726	207.371383	-147.194926	137.099643	228.905759	-100.486189	132.878576	1045.521359	-466.615397	217.644134	1027.428034	-468.034316	234.067223	1058.796333	-458.285041	283.373718	967.050814	-467.543809	409.227737	869.358129	-443.206295	439.949787	852.233990	-334.242574	388.304572	754.072437	-464.451345	378.779384	669.480510	-442.785433	329.661402	595.996376	-441.130446	404.781682	664.329832	-413.635345	270.282319	465.744506	-436.483859	268.269193	474.002328	-348.891854	190.267984	435.358785	-397.011231	490.298163	449.326538	-400.425183	424.944350	404.278974	-462.746395	-176.186003	933.480334	-279.733548	-3.245830	85.361426	-484.646701	-14.937912	80.318448	-84.156389	
